<svg id="Layer_1" data-name="Layer 1" xmlns="http://www.w3.org/2000/svg" viewBox="0 0 412.53 233.46"><defs><style>.cls-1{fill:#d45864;}.cls-2{fill:#dd5a62;}.cls-3{fill:#e58a68;}.cls-4{fill:#e35b62;}</style></defs><title>Hacktoberfest-BigDetail</title><path class="cls-1" d="M360.28,24.51c-2.29-2.1-3.68-.08-5.25,1.14-7.06,4-14.1,8-21.18,11.94-1.18.66-2.38,2-3.88.41-1.77-1.92-.08-2.88,1-4,7.59-4.3,15.15-8.65,22.78-12.87,2.07-1.15,2.51-2.75,2.79-5,.74-5.82,5.4-8.52,10.93-6.63,1.34.46,2.5,1.93,4.11,1,5.63-3.37,11.93-5.69,16.66-10.5h2.25c1,2.7.73,4.63-2.35,6.1-4.37,2.09-8.42,4.84-12.65,7.24-1.67.95-3,1.79-3,4.15-.07,4.35-2.86,6.66-6.83,7.76Zm4-11.23a3.52,3.52,0,0,0-3.74,3.92,3.82,3.82,0,1,0,7.65-.23A3.48,3.48,0,0,0,364.3,13.28Z"/><path class="cls-2" d="M68,149.34c9.3-18.88,20.55-36.62,31.63-54.47,2.07-3.33,4.47-1.25,6.72-1.69.88-2.83,5.83-5.76-.21-8.43L99.5,80.21c-3.6-2.14-4.58,1.32-6.4,3C94.34,87,94.34,90.53,92,94c-3.11,4.59-6.08,9.28-9.11,13.93L55.26,157.41c-12.22,25-24.3,50-34.14,76.05h7.55c2.64-6.58,5.12-13.23,7.94-19.74C46.11,191.8,56,170.05,68,149.34Z"/><path class="cls-3" d="M112.33,42.26c-6.08,8.91-12.1,17.85-18.27,26.69-1.47,2.11-1.54,3.57.73,5C96.46,75,98,76.31,99.61,77.5c3,.46,5,2.45,7.1,4.42,11,8.09,11,8.1,18.72-3.36,4.86-7.26,9.51-14.68,14.6-21.78,2-2.81,1.84-4.86-.27-7.18L135,49.44l-5.92,8.74c-6.16,9.12-6.07,9-14.93,2.7-2.72-1.93-2.65-3.36-.91-5.78,3.47-4.8,6.72-9.76,10.06-14.66L120.87,37C115.16,34.1,115.07,40.33,112.33,42.26Z"/><path class="cls-3" d="M223.37,104l3.16-.74C236.8,94.6,241.25,84,237.14,70.65c-1.26-4-3.15-4.09-6.19-1.44A49.9,49.9,0,0,0,221.64,80C216.06,88.44,220.16,96.21,223.37,104Z"/><path class="cls-4" d="M286.62,36.23l-9.07,8.87C272.76,52.89,273,61,276,69.29c1.13,3.15,2.13,4.31,5.32,1.67,9.92-8.2,13.57-20,9.44-31.56C290,37.36,289.5,35.34,286.62,36.23Z"/><path class="cls-3" d="M317.05,19.31c-6.48,2-9.71,7.54-13.71,12.28-2.6,6.7-2.41,13.44-.24,20.18,1.79,5.55,2.56,5.77,6.82,2C320.05,44.89,322.29,34.05,317.05,19.31Z"/><path class="cls-4" d="M246.66,69.64a41.14,41.14,0,0,0,2.41,15.88c1.21,3.15,2.5,3.41,5.13,1.19,7.43-6.27,11.29-14.11,11.45-23.81a17.18,17.18,0,0,1-.66-2.12c-.59-3.24-.41-7.72-3.62-8.68-2.89-.86-5.11,3.09-7.42,5.17C250.22,60.61,248.22,65,246.66,69.64Z"/><path class="cls-4" d="M195.54,117.78c1.32,2.66,2.79,2,4.62.42,5.47-4.66,9.53-10.17,11.13-17.3,1.16-5.88-.87-11.38-2-17-1.94-1.92-3.33-.32-4.81.75C194.35,92,191,101.44,194.3,113.5,194.69,114.93,195.13,116.35,195.54,117.78Z"/><path class="cls-1" d="M370.82,52.83c1.69-.94,2.06-2.66,2.63-4.09,2.31-5.76,4.81-7.47,10.68-5.71a7.11,7.11,0,0,0,6.74-1c3.95-2.7,8.13-5.1,11.89-8,2.26-1.76,5.33-2.21,6.4-.71,1.68,2.36-1.3,3.63-3.19,4.77-4.39,2.65-8.69,5.44-13.19,7.89a5.65,5.65,0,0,0-3.36,4.58c-1,6.86-5,10.08-11.15,7.47-3.9-1.66-6.06-.41-8.82,1.31-4.64,2.88-9.31,5.71-14,8.56-6.93,3.33-6.93,3.33-8.36-1.44C355.49,62.71,362.86,57.26,370.82,52.83Zm11-6.05a3.59,3.59,0,0,0-3.92,3.81,3.55,3.55,0,0,0,3.69,4c2.41.08,3.68-1.45,4-3.89C385.4,48.43,384.16,46.82,381.8,46.77Z"/><path class="cls-4" d="M120.87,37l2.47,3.44c4.13,2.7,9.17,4.21,11.7,9l4.72.17c9-11.15,9-11.14-2.58-19.06-2.43-1.67-4.83-3.4-7.24-5.11C125.42,28.12,123.91,33.16,120.87,37Z"/><path class="cls-4" d="M308.49,64a15.6,15.6,0,0,0,3.77,1c4.63,0,5.45,2.07,3.58,5.95-.54,1.12-1.55,2.54-.59,3.61,1.22,1.36,2.78.06,4.13-.3,7.29-2,11-7.79,14.71-13.67,2.28-6.93,1.58-7.89-5.81-7.28C320.15,54,312.91,56.43,308.49,64Z"/><path class="cls-4" d="M281.65,78.13c-1.49,3.17,1.05,2.79,2.71,3,4.3.43,6.07,2.18,3.78,6.45-.5.93-1.37,2.09-.52,3.07,1,1.16,2.5.49,3.69.14C300.53,88,304.89,80.65,308,72.41c1.16-3.11-2.1-4-3.94-3.68-4.09.75-8.41.39-12.29,2.27A54.28,54.28,0,0,0,281.65,78.13Z"/><path class="cls-3" d="M362.25,36.85c-7.51,0-14.95.42-21.17,5.42-1.71,1.38-3.46,2.77-4.41,4.76.64,1.84,2.26,1.57,3.34,1.64,4.6.27,5.68,2.14,3.55,6.26-1.75,3.37.34,3.86,3,3.25A18.9,18.9,0,0,0,360.2,46.7c1-2.18,2.23-4.23,3.35-6.34Z"/><path class="cls-1" d="M369.38,32c4.56-2.52,9.09-5.1,13.68-7.55,2.6-1.39,4.13-3,4.39-6.35.39-5,5.28-8.51,9.62-6.53s7.28.66,10.6-1.45c1.35-.86,3-2.31,4.31-.17,1.72,2.71-1,3.24-2.46,3.84-4.42,1.87-6.75,5-6.77,9.79-2.29,2.25-5.12,5.06-8.15,3.68-5.31-2.42-8.76.45-12.71,2.72-6.09,3.51-12.23,6.94-18.35,10.41l-1.3-3.51ZM395,15.5c-2.39.26-3.73,1.78-3.39,4.22s1.85,3.79,4.22,3.51,3.37-2.06,3.6-4.07C398.78,16.58,397.37,15.24,395,15.5Z"/><path class="cls-3" d="M293.25,99.79c5.08,4.76,10.15,9.55,17.53,10.46a42.38,42.38,0,0,0,15.17-3c3.71-1.47,3.33-2.93,1.15-5.54-7.84-9.4-22.86-12.53-33.54-7C290.26,96.41,291.79,98,293.25,99.79Z"/><path class="cls-4" d="M334.27,75.69a41.71,41.71,0,0,0-12.67,2.61c-2.32.92-2.64,1.85-1.16,4.05a25.93,25.93,0,0,0,34.15,8.11c2.43-1.33,2.22-2.45.76-4.21C350,79.78,343.22,76,334.27,75.69Z"/><path class="cls-4" d="M301.51,121.85c1-1.71-.24-2.78-1.17-3.94-7.84-9.8-22.23-13-33.54-7.56-3.07,1.46-2,2.83-.59,4.59,6.55,8.19,14.77,12.36,25.46,10.61Z"/><path class="cls-3" d="M260.6,103.46c-1,3.06.06,3.89,3.12,3.25,5.17-1.09,8.5-4.79,12.15-8.09,1.57-3.16,3.19-6.28,4.67-9.48.6-1.29,1.33-2.69-.9-3.58-7.33-3-21.63,2.89-25.5,10.55C262.87,98.15,262.87,98.15,260.6,103.46Z"/><path class="cls-4" d="M228.93,108.22c0,1.34-3.34,3.56-.47,3.72,8.27.45,7.73,4.47,4.63,10,9.9.79,19.82-9.15,21.2-20.66C244.85,100,236.24,101.78,228.93,108.22Z"/><path class="cls-2" d="M159.3,161.8c-20,17.5-39.93,35-58.42,54.14-5.59,5.78-11.05,11.67-16.58,17.51H95.17a534.62,534.62,0,0,1,50.33-48.56A334.49,334.49,0,0,1,180.16,156c6.25-5.92,13.51-10.53,20.29-15.77,1.62-1.25,3.45-1.18,5.31-1.36a25.12,25.12,0,0,0,22.1-18.65c.75-2.71-.27-3.21-2.61-3.39-11-.86-19.88,2.7-25.92,12.12a30.56,30.56,0,0,1-7.66,8C180.79,145.09,170.07,153.48,159.3,161.8Z"/><path class="cls-3" d="M226.7,139a40.56,40.56,0,0,0-13.53,2.64c-2.44.86-2.57,2-1.12,4.11a25.91,25.91,0,0,0,34.22,8c2.35-1.35,2.22-2.37.7-4.2C241.43,142.81,234.44,139.14,226.7,139Z"/><path class="cls-4" d="M252.79,123.39a39.32,39.32,0,0,0-12.58,2.51c-2.36.86-2.69,1.89-1.19,4.09,7.6,11.14,21.7,14.54,33.82,8.2,2.65-1.38,2.48-2.51.92-4.59A27.13,27.13,0,0,0,252.79,123.39Z"/><path class="cls-4" d="M41.63,151.26Q53.87,124.52,41.08,98l-2.68,1c-6.43,8.66-7.07,18.76-7.17,29,1.57,6.47,3,13,6.5,18.78C38.76,148.53,39.36,150.64,41.63,151.26Z"/><path class="cls-4" d="M171.31,186c-4.2.18-10.57-1.61-12,1.64-1.61,3.72,3.84,7.27,6.71,10.5,7.43,8.33,16.86,13.85,26.79,18.62,5.78,1.37,11.53,2.84,17.34,4.06,1.93.41,4.62,1.33,5.84-.22,1.42-1.81-.83-3.75-1.83-5.4C204.35,198.9,189.89,189.38,171.31,186Z"/><path class="cls-4" d="M215.29,188.33c6.18-1.05,12.62-.85,19.26-4.31a43.38,43.38,0,0,0-19.68-11c-8.44-2.14-17-2.44-25.36.23-2.79.89-6.35,1.47-7,5.4A66.43,66.43,0,0,0,215.29,188.33Z"/><path class="cls-4" d="M10.82,122.59C7.26,121.1,4.65,117.86,0,116.77c0,20.77,8,37.79,21.43,52.67,2.59,2.13,5.21,4.23,7.75,6.41s3.72,1.34,4.34-1.73c1.73-8.6-.18-16.68-3.14-24.66C26.37,138.68,19.31,130.11,10.82,122.59Z"/></svg>