<svg id="Layer_1" data-name="Layer 1" xmlns="http://www.w3.org/2000/svg" viewBox="0 0 497.36 131.6"><defs><style>.cls-1{fill:#f16361;}.cls-2{fill:#f79468;}.cls-3{fill:#fff;}</style></defs><title>HacktoberfestMacedonia</title><polygon class="cls-1" points="214.31 26.9 203.56 26.9 203.56 18.83 184.74 37.66 192.81 37.66 192.81 86.09 198.18 91.47 203.56 86.09 211.63 78.02 208.94 75.33 203.56 80.71 203.56 37.66 214.31 26.9"/><polygon class="cls-2" points="195.44 88.73 198.18 91.47 203.56 86.09 211.63 78.02 208.94 75.33 203.56 80.71 195.44 88.73"/><polygon class="cls-2" points="389.88 18.83 389.88 18.83 389.88 8.07 379.13 18.83 379.13 29.59 371.06 37.66 379.13 37.66 379.13 86.09 384.51 91.47 389.88 86.09 389.88 37.66 400.64 26.9 389.88 26.9 389.88 18.83"/><polygon class="cls-1" points="371.06 37.66 379.13 37.66 389.88 37.66 400.64 26.9 379.13 26.9 371.06 37.66"/><polygon class="cls-1" points="406.01 8.07 397.95 0 389.88 8.07 397.95 16.14 406.01 8.07"/><polygon class="cls-1" points="269.85 34.97 269.85 26.9 269.85 13.45 261.79 5.38 253.72 13.45 259.1 18.83 259.1 80.71 269.85 91.47 277.92 83.4 269.85 75.33 269.85 34.97"/><polygon class="cls-2" points="269.85 34.97 269.85 26.9 269.85 13.45 259.1 18.83 259.1 80.71 269.85 75.33 269.85 34.97"/><polygon class="cls-1" points="269.85 34.97 277.92 43.05 277.92 83.4 288.67 72.64 288.67 37.66 277.92 26.9 269.85 34.97"/><polygon class="cls-1" points="56.5 80.16 50.85 74.51 50.85 66.03 50.85 23.63 50.85 12.32 50.85 9.49 42.37 1.01 33.9 9.49 39.55 15.15 39.55 29.21 25.49 43.28 25.49 23.63 25.49 9.49 17.02 1.01 16.98 1.05 16.95 1.01 0 17.98 2.89 20.87 11.37 12.39 14.19 15.22 14.19 85.82 19.84 91.47 25.49 85.82 25.49 55.46 39.55 41.39 39.55 66.03 39.55 80.16 50.85 91.47 56.5 85.82 59.32 82.99 64.97 77.33 62.15 74.51 56.5 80.16"/><polygon class="cls-2" points="50.85 74.51 50.85 66.03 50.85 23.63 50.85 12.32 50.85 9.49 39.55 15.15 39.55 29.21 39.55 41.39 39.55 66.03 39.55 80.16 50.85 74.51"/><polygon class="cls-1" points="486.61 80.71 486.61 37.66 497.36 26.9 486.61 26.9 486.61 18.83 467.79 37.66 475.86 37.66 475.86 86.09 481.23 91.47 486.61 86.09 494.68 78.02 491.99 75.33 486.61 80.71"/><polygon class="cls-2" points="486.61 80.71 486.61 37.66 475.86 37.66 475.86 86.09 478.81 89.04 486.61 80.71"/><polygon class="cls-1" points="229.54 34.97 218.78 45.73 218.78 80.71 229.54 91.47 237.6 83.4 229.54 75.33 229.54 34.97"/><polygon class="cls-2" points="229.54 34.97 218.78 45.73 218.78 80.71 229.54 75.33 229.54 34.97"/><polygon class="cls-1" points="229.54 34.97 237.6 43.05 237.6 83.4 248.36 72.64 248.36 37.66 237.6 26.9 229.54 34.97"/><polygon class="cls-1" points="328.01 37.6 317.32 26.9 309.26 34.97 317.26 42.98 309.26 50.98 309.26 34.97 298.5 45.73 298.5 80.71 309.26 91.47 314.63 86.09 317.32 83.4 325.39 75.33 322.7 72.64 314.63 80.71 309.26 75.33 309.26 56.36 328.01 37.6"/><polygon class="cls-2" points="309.26 34.97 309.26 50.98 309.26 34.97 298.5 45.73 298.5 80.71 309.26 75.33 309.26 56.36 309.26 34.97"/><polygon class="cls-1" points="82.55 34.97 71.8 45.73 71.8 80.71 82.55 91.47 90.62 83.4 82.55 75.33 82.55 34.97"/><polygon class="cls-1" points="101.37 37.66 90.62 26.9 82.55 34.97 90.62 43.05 90.62 83.4 98.69 91.47 106.75 83.4 101.37 78.02 101.37 37.66"/><polygon class="cls-2" points="101.37 37.66 90.62 43.05 90.62 83.4 98.69 91.47 106.75 83.4 101.37 78.02 101.37 37.66"/><polygon class="cls-1" points="130.11 80.71 124.73 75.33 124.73 34.97 113.98 45.73 113.98 80.71 124.73 91.47 130.11 86.09 132.8 83.4 140.86 75.33 138.17 72.64 130.11 80.71"/><polygon class="cls-2" points="124.73 75.33 124.73 34.97 113.98 45.73 113.98 80.71 124.73 75.33"/><polygon class="cls-1" points="124.73 34.9 132.8 42.97 140.86 34.9 132.8 26.83 124.73 34.9"/><polygon class="cls-1" points="168.62 26.9 160.56 34.97 168.62 43.04 176.69 34.97 168.62 26.9"/><polygon class="cls-1" points="165.93 56.49 165.93 86.09 171.31 91.47 176.69 86.09 176.69 51.12 168.62 43.04 160.56 51.12 165.93 56.49"/><polygon class="cls-1" points="160.56 26.9 160.56 13.45 152.49 5.38 144.43 13.45 149.8 18.83 149.8 86.09 155.18 91.47 160.56 86.09 160.56 51.12 160.56 34.97 160.56 26.9"/><polygon class="cls-2" points="160.56 26.9 160.56 13.45 149.8 18.83 149.8 86.09 155.18 91.47 160.56 86.09 160.56 51.12 160.56 34.97 160.56 26.9"/><polygon class="cls-1" points="414.94 34.97 422.94 42.98 414.94 50.98 414.94 34.97 404.19 45.73 404.19 80.71 414.94 91.47 420.32 86.09 423.01 83.4 431.07 75.33 428.38 72.64 420.32 80.71 414.94 75.33 414.94 56.36 433.69 37.6 423.01 26.9 414.94 34.97"/><polygon class="cls-2" points="414.94 50.98 414.94 34.97 404.19 45.73 404.19 80.71 414.94 75.33 414.94 56.36 414.94 50.98"/><polygon class="cls-1" points="349.57 34.97 357.64 43.05 365.7 34.97 357.64 26.9 349.57 34.97"/><polygon class="cls-1" points="333.44 34.97 338.82 40.35 338.82 48.42 338.82 56.49 338.82 86.09 344.19 91.47 349.57 86.09 349.57 56.49 349.57 48.42 349.57 34.97 341.5 26.9 333.44 34.97"/><polygon class="cls-2" points="338.82 40.35 338.82 48.42 338.82 56.49 338.82 86.09 344.19 91.47 349.57 86.09 349.57 56.49 349.57 48.42 349.57 34.97 338.82 40.35"/><polygon class="cls-1" points="440.9 83.4 448.97 91.47 457.04 83.4 448.97 75.33 440.9 83.4"/><polygon class="cls-1" points="465.1 34.97 457.04 26.9 448.97 34.97 457.04 43.05 465.1 34.97"/><polygon class="cls-1" points="440.9 43.05 440.9 53.81 457.04 69.95 457.04 83.4 465.1 75.33 465.1 61.88 463.76 60.53 457.04 53.81 448.97 45.73 448.97 34.97 440.9 43.05"/><polygon class="cls-2" points="440.9 53.8 457.04 69.95 465.1 61.88 463.76 60.53 457.04 53.8 448.97 45.73 440.9 53.8"/><polygon class="cls-2" points="214.31 26.9 195.49 26.9 184.74 37.66 192.81 37.66 203.56 37.66 214.31 26.9"/><path class="cls-3" d="M8.75,103.62h2L22,119.89l11.27-16.27h2v27.51H33.13v-23.9L22,123.07h-.16L10.75,107.23v23.9h-2Z"/><path class="cls-3" d="M82.31,103.42h2l13.07,27.71H95.1l-3.57-7.7H75l-3.57,7.7H69.23Zm8.34,18.16-7.38-15.92-7.42,15.92Z"/><path class="cls-3" d="M128.56,117.37a14,14,0,0,1,14-14.23c5,0,7.9,1.93,10.79,4.52L152,109a13,13,0,0,0-9.47-4c-6.74,0-11.83,5.38-11.83,12.38s5.17,12.38,11.87,12.38c4.05,0,6.82-1.53,9.67-4.28l1.4,1.34c-3,2.87-6.18,4.79-11.15,4.79C134.49,131.6,128.56,125.35,128.56,117.37Z"/><path class="cls-3" d="M187.48,103.62h20v1.89H189.56v10.81h16.08v1.89H189.56v11h18.09v1.89H187.48Z"/><path class="cls-3" d="M242.43,103.62h9.34c8.82,0,14.92,5.94,14.92,13.76s-6.1,13.76-14.92,13.76h-9.34Zm9.34,25.63c7.82,0,12.75-5.23,12.75-11.87s-4.93-11.87-12.75-11.87h-7.26v23.74Z"/><path class="cls-3" d="M300.63,117.37a14,14,0,0,1,14.16-14.23c8.5,0,14.08,6.64,14.08,14.23A14,14,0,0,1,314.7,131.6C306.2,131.6,300.63,125,300.63,117.37Zm26.07,0c0-6.8-5.05-12.38-12-12.38s-11.91,5.5-11.91,12.38,5.05,12.38,12,12.38S326.69,124.25,326.69,117.37Z"/><path class="cls-3" d="M364,103.62h2l19.37,23.94V103.62h2v27.51h-1.56L366,106.68v24.45h-2Z"/><path class="cls-3" d="M424.08,103.62h2.09v27.51h-2.09Z"/><path class="cls-3" d="M473.54,103.42h2l13.07,27.71h-2.29l-3.57-7.7H466.2l-3.57,7.7h-2.17Zm8.34,18.16-7.38-15.92-7.42,15.92Z"/></svg>