<svg id="Layer_1" data-name="Layer 1" xmlns="http://www.w3.org/2000/svg" viewBox="0 0 412.53 233.46"><defs><style>.cls-1{fill:#d45864;}.cls-2{fill:#dd5a62;}.cls-3{fill:#e58a68;}.cls-4{fill:#e35b62;}</style></defs><title>Hack-Detail2</title><path class="cls-1" d="M46.89,25.25c-4-1.1-6.76-3.41-6.83-7.76,0-2.36-1.38-3.2-3-4.15-4.23-2.4-8.28-5.15-12.65-7.24C21.27,4.63,21.05,2.7,22,0h2.25c4.73,4.81,11,7.13,16.66,10.5,1.6,1,2.76-.51,4.11-1,5.53-1.89,10.19.81,10.93,6.63.28,2.2.72,3.81,2.79,5C66.37,25.34,73.93,29.69,81.52,34c1.13,1.13,2.82,2.1,1,4-1.5,1.63-2.71.24-3.88-.41-7.08-3.94-14.12-8-21.18-11.94-1.57-1.22-3-3.24-5.25-1.14ZM44.33,17A3.6,3.6,0,0,0,48,21,3.58,3.58,0,0,0,52,17.2a3.52,3.52,0,0,0-3.74-3.92A3.48,3.48,0,0,0,44.33,17Z"/><path class="cls-2" d="M344.55,149.34c-9.3-18.88-20.55-36.62-31.63-54.47-2.07-3.33-4.47-1.25-6.72-1.69-.88-2.83-5.83-5.76.21-8.43L313,80.21c3.6-2.14,4.58,1.32,6.4,3-1.24,3.74-1.24,7.32,1.09,10.75,3.11,4.59,6.08,9.28,9.11,13.93l27.65,49.52c12.22,25,24.3,50,34.14,76.05h-7.55c-2.64-6.58-5.12-13.23-7.94-19.74C366.42,191.8,356.54,170.05,344.55,149.34Z"/><path class="cls-3" d="M300.21,42.26c6.08,8.91,12.1,17.85,18.27,26.69,1.47,2.11,1.54,3.57-.73,5-1.68,1.07-3.22,2.34-4.83,3.53-3,.46-5,2.45-7.1,4.42-11,8.09-11,8.1-18.72-3.36-4.86-7.26-9.51-14.68-14.6-21.78-2-2.81-1.84-4.86.27-7.18l4.72-.17,5.92,8.74c6.16,9.12,6.07,9,14.93,2.7,2.72-1.93,2.65-3.36.91-5.78-3.47-4.8-6.72-9.76-10.06-14.66L291.66,37C297.38,34.1,297.47,40.33,300.21,42.26Z"/><path class="cls-3" d="M189.16,104,186,103.3C175.73,94.6,171.28,84,175.39,70.65c1.26-4,3.15-4.09,6.19-1.44A49.9,49.9,0,0,1,190.89,80C196.48,88.44,192.37,96.21,189.16,104Z"/><path class="cls-4" d="M125.92,36.23,135,45.1c4.78,7.79,4.57,15.87,1.58,24.19-1.13,3.15-2.13,4.31-5.32,1.67-9.92-8.2-13.57-20-9.44-31.56C122.54,37.36,123,35.34,125.92,36.23Z"/><path class="cls-3" d="M95.48,19.31c6.48,2,9.71,7.54,13.71,12.28,2.6,6.7,2.41,13.44.24,20.18-1.79,5.55-2.56,5.77-6.82,2C92.48,44.89,90.24,34.05,95.48,19.31Z"/><path class="cls-4" d="M165.88,69.64a41.14,41.14,0,0,1-2.41,15.88c-1.21,3.15-2.5,3.41-5.13,1.19C150.91,80.44,147,72.6,146.89,62.9a17.18,17.18,0,0,0,.66-2.12c.59-3.24.41-7.72,3.62-8.68,2.89-.86,5.11,3.09,7.42,5.17C162.31,60.61,164.31,65,165.88,69.64Z"/><path class="cls-4" d="M217,117.78c-1.32,2.66-2.79,2-4.62.42-5.47-4.66-9.53-10.17-11.13-17.3-1.16-5.88.87-11.38,2-17,1.94-1.92,3.33-.32,4.81.75,10.17,7.38,13.51,16.79,10.22,28.85C217.84,114.93,217.41,116.35,217,117.78Z"/><path class="cls-1" d="M65.4,66.47C64,71.23,64,71.23,57,67.9c-4.66-2.85-9.33-5.67-14-8.56-2.76-1.72-4.92-3-8.82-1.31-6.1,2.6-10.16-.61-11.15-7.47A5.65,5.65,0,0,0,19.75,46C15.25,43.54,11,40.74,6.56,38.1,4.68,37,1.7,35.69,3.38,33.33c1.07-1.5,4.14-1,6.4.71,3.76,2.94,7.94,5.33,11.89,8a7.11,7.11,0,0,0,6.74,1c5.87-1.76,8.37,0,10.68,5.71.57,1.42.94,3.15,2.63,4.09C49.68,57.26,57,62.71,65.4,66.47ZM26.94,50.69c.33,2.44,1.6,4,4,3.89a3.55,3.55,0,0,0,3.69-4,3.59,3.59,0,0,0-3.92-3.81C28.37,46.82,27.13,48.43,26.94,50.69Z"/><path class="cls-4" d="M291.66,37l-2.47,3.44c-4.13,2.7-9.17,4.21-11.7,9l-4.72.17c-9-11.15-9-11.14,2.58-19.06,2.43-1.67,4.83-3.4,7.24-5.11C287.11,28.12,288.63,33.16,291.66,37Z"/><path class="cls-4" d="M104,64a15.6,15.6,0,0,1-3.77,1c-4.63,0-5.45,2.07-3.58,5.95.54,1.12,1.55,2.54.59,3.61-1.22,1.36-2.78.06-4.13-.3-7.29-2-11-7.79-14.71-13.67-2.28-6.93-1.58-7.89,5.81-7.28C92.38,54,99.62,56.43,104,64Z"/><path class="cls-4" d="M130.88,78.13c1.49,3.17-1.05,2.79-2.71,3-4.3.43-6.07,2.18-3.78,6.45.5.93,1.37,2.09.52,3.07-1,1.16-2.5.49-3.69.14C112,88,107.64,80.65,104.55,72.41c-1.16-3.11,2.1-4,3.94-3.68,4.09.75,8.41.39,12.29,2.27A54.28,54.28,0,0,1,130.88,78.13Z"/><path class="cls-3" d="M50.28,36.85c7.51,0,14.95.42,21.17,5.42C73.17,43.65,74.92,45,75.86,47c-.64,1.84-2.26,1.57-3.34,1.64-4.6.27-5.68,2.14-3.55,6.26,1.75,3.37-.34,3.86-3,3.25A18.9,18.9,0,0,1,52.33,46.7c-1-2.18-2.23-4.23-3.35-6.34Z"/><path class="cls-1" d="M50.28,36.85,49,40.36C42.86,36.9,36.72,33.47,30.62,30c-3.94-2.27-7.4-5.14-12.71-2.72-3,1.38-5.86-1.43-8.15-3.68,0-4.81-2.34-7.92-6.77-9.79-1.42-.6-4.17-1.13-2.46-3.84,1.35-2.14,3-.69,4.31.17,3.33,2.11,6.23,3.45,10.6,1.45s9.23,1.55,9.62,6.53c.27,3.38,1.79,5,4.39,6.35,4.59,2.46,9.12,5,13.68,7.55ZM13.13,19.16c.23,2,1.29,3.79,3.6,4.07S20.63,22,21,19.72s-1-4-3.39-4.22S13.76,16.58,13.13,19.16Z"/><path class="cls-3" d="M119.29,99.79c-5.08,4.76-10.15,9.55-17.53,10.46a42.38,42.38,0,0,1-15.17-3c-3.71-1.47-3.33-2.93-1.15-5.54,7.84-9.4,22.86-12.53,33.54-7C122.27,96.41,120.74,98,119.29,99.79Z"/><path class="cls-4" d="M78.26,75.69a41.71,41.71,0,0,1,12.67,2.61c2.32.92,2.64,1.85,1.16,4.05a25.93,25.93,0,0,1-34.15,8.11c-2.43-1.33-2.22-2.45-.76-4.21C62.58,79.78,69.31,76,78.26,75.69Z"/><path class="cls-4" d="M111,121.85c-1-1.71.24-2.78,1.17-3.94,7.84-9.8,22.23-13,33.54-7.56,3.07,1.46,2,2.83.59,4.59-6.55,8.19-14.77,12.36-25.46,10.61Z"/><path class="cls-3" d="M151.93,103.46c1,3.06-.06,3.89-3.12,3.25-5.17-1.09-8.5-4.79-12.15-8.09-1.57-3.16-3.19-6.28-4.67-9.48-.6-1.29-1.33-2.69.9-3.58,7.33-3,21.63,2.89,25.5,10.55C149.66,98.15,149.66,98.15,151.93,103.46Z"/><path class="cls-4" d="M183.61,108.22c0,1.34,3.34,3.56.47,3.72-8.27.45-7.73,4.47-4.63,10-9.9.79-19.82-9.15-21.2-20.66C167.69,100,176.29,101.78,183.61,108.22Z"/><path class="cls-2" d="M253.24,161.8c20,17.5,39.93,35,58.42,54.14,5.59,5.78,11.05,11.67,16.58,17.51H317.36A534.62,534.62,0,0,0,267,184.89,334.49,334.49,0,0,0,232.38,156c-6.25-5.92-13.51-10.53-20.29-15.77-1.62-1.25-3.45-1.18-5.31-1.36a25.12,25.12,0,0,1-22.1-18.65c-.75-2.71.27-3.21,2.61-3.39,11-.86,19.88,2.7,25.92,12.12a30.56,30.56,0,0,0,7.66,8C231.74,145.09,242.46,153.48,253.24,161.8Z"/><path class="cls-3" d="M185.84,139a40.56,40.56,0,0,1,13.53,2.64c2.44.86,2.57,2,1.12,4.11a25.91,25.91,0,0,1-34.22,8c-2.35-1.35-2.22-2.37-.7-4.2C171.1,142.81,178.1,139.14,185.84,139Z"/><path class="cls-4" d="M159.74,123.39a39.32,39.32,0,0,1,12.58,2.51c2.36.86,2.69,1.89,1.19,4.09-7.6,11.14-21.7,14.54-33.82,8.2-2.65-1.38-2.48-2.51-.92-4.59A27.13,27.13,0,0,1,159.74,123.39Z"/><path class="cls-4" d="M370.9,151.26q-12.24-26.74.55-53.22l2.68,1c6.43,8.66,7.07,18.76,7.17,29-1.57,6.47-3,13-6.5,18.78C373.77,148.53,373.17,150.64,370.9,151.26Z"/><path class="cls-4" d="M241.23,186c4.2.18,10.57-1.61,12,1.64,1.61,3.72-3.84,7.27-6.71,10.5-7.43,8.33-16.86,13.85-26.79,18.62-5.78,1.37-11.53,2.84-17.34,4.06-1.93.41-4.62,1.33-5.84-.22-1.42-1.81.83-3.75,1.83-5.4C208.18,198.9,222.64,189.38,241.23,186Z"/><path class="cls-4" d="M197.24,188.33c-6.18-1.05-12.62-.85-19.26-4.31a43.38,43.38,0,0,1,19.68-11c8.44-2.14,17-2.44,25.36.23,2.79.89,6.35,1.47,7,5.4A66.43,66.43,0,0,1,197.24,188.33Z"/><path class="cls-4" d="M401.72,122.59c3.56-1.49,6.17-4.73,10.82-5.82,0,20.77-8,37.79-21.43,52.67-2.59,2.13-5.21,4.23-7.75,6.41s-3.72,1.34-4.34-1.73c-1.73-8.6.18-16.68,3.14-24.66C386.17,138.68,393.23,130.11,401.72,122.59Z"/></svg>