<?xml version="1.0" encoding="UTF-8" standalone="no"?>
<!DOCTYPE svg PUBLIC "-//W3C//DTD SVG 1.1//EN" "http://www.w3.org/Graphics/SVG/1.1/DTD/svg11.dtd">
<svg
   xmlns:dc="http://purl.org/dc/elements/1.1/"
   xmlns:cc="http://creativecommons.org/ns#"
   xmlns:rdf="http://www.w3.org/1999/02/22-rdf-syntax-ns#"
   xmlns:svg="http://www.w3.org/2000/svg"
   xmlns="http://www.w3.org/2000/svg"
   xmlns:sodipodi="http://sodipodi.sourceforge.net/DTD/sodipodi-0.dtd"
   xmlns:inkscape="http://www.inkscape.org/namespaces/inkscape"
   width="250"
   height="67"
   id="adevalogo"
   version="1.1"
   inkscape:version="0.48.4 r9939"
   sodipodi:docname="logo.svg">
  <defs
     id="defs4" />
  <metadata
     id="metadata7">
    <rdf:RDF>
      <cc:Work
         rdf:about="">
        <dc:format>image/svg+xml</dc:format>
        <dc:type
           rdf:resource="http://purl.org/dc/dcmitype/StillImage" />
      </cc:Work>
    </rdf:RDF>
  </metadata>
  <g
     inkscape:label="Layer 1"
     inkscape:groupmode="layer"
     id="layer1">
    <g
       id="layer1-3"
       inkscape:label="Layer 1"
       transform="matrix(0.97362068,0,0,0.98042173,-0.46856469,1.5122167)">
      <g
         transform="translate(-268.87874,-250.70603)"
         id="g3074">
        <g
           id="g3076">
          <path
             style="fill:#fff"
             inkscape:connector-curvature="0"
             d="m 385.034,304.831 h -4.18 v -5.027 c -3.502,4.011 -7.795,5.931 -12.879,5.762 -4.463,-0.17 -8.248,-1.864 -11.354,-5.141 -3.106,-3.276 -4.688,-7.174 -4.688,-11.693 0,-4.688 1.695,-8.756 5.028,-12.088 3.333,-3.389 7.343,-4.971 12.032,-4.802 4.519,0.17 8.36,1.864 11.523,5.197 3.164,3.276 4.688,7.174 4.519,11.636 v 0.226 15.93 z m -28.752,-16.438 c -0.056,3.389 1.017,6.383 3.333,8.925 2.316,2.542 5.14,3.841 8.417,4.011 3.559,0.169 6.553,-1.073 9.038,-3.672 2.542,-2.655 3.729,-5.762 3.672,-9.321 -0.057,-3.389 -1.299,-6.27 -3.615,-8.699 -2.316,-2.429 -5.141,-3.615 -8.417,-3.615 -3.445,0 -6.326,1.187 -8.755,3.615 -2.431,2.429 -3.617,5.31 -3.673,8.756 z"
             id="path3078" />
          <path
             style="fill:#fff"
             inkscape:connector-curvature="0"
             d="m 422.809,288.901 c 0.112,4.632 -1.525,8.643 -4.972,12.032 -3.445,3.333 -7.456,4.971 -12.088,4.801 -4.463,-0.112 -8.304,-1.808 -11.411,-5.083 -3.107,-3.277 -4.632,-7.174 -4.632,-11.693 0,-4.688 1.694,-8.756 5.027,-12.088 3.333,-3.39 7.343,-5.028 11.975,-4.858 4.745,0.169 8.699,2.09 11.862,5.705 v -16.212 h 4.237 v 27.396 z m -17.003,12.597 c 3.559,0.17 6.553,-1.017 9.038,-3.671 2.542,-2.655 3.728,-5.706 3.615,-9.264 -0.057,-3.389 -1.3,-6.27 -3.615,-8.699 -2.316,-2.429 -5.084,-3.615 -8.417,-3.615 -3.389,-0.057 -6.327,1.187 -8.756,3.615 -2.429,2.429 -3.615,5.31 -3.671,8.756 -0.057,3.389 1.073,6.383 3.389,8.925 2.316,2.542 5.084,3.841 8.417,3.953 z"
             id="path3080" />
          <path
             style="fill:#fff"
             inkscape:connector-curvature="0"
             d="m 459.526,294.268 c -1.187,3.446 -3.22,6.214 -6.101,8.247 -2.881,2.034 -6.044,3.051 -9.547,3.107 -4.406,0.057 -8.304,-1.525 -11.692,-4.802 -3.39,-3.333 -5.141,-7.23 -5.197,-11.806 -0.113,-4.801 1.582,-8.981 5.084,-12.427 3.559,-3.502 7.683,-5.14 12.483,-4.858 4.294,0.283 8.021,2.034 11.185,5.31 3.051,3.22 4.576,6.835 4.576,10.846 v 2.316 h -28.922 c 0.339,3.22 1.694,5.931 4.123,8.021 2.43,2.09 5.254,3.164 8.53,3.107 5.084,-0.057 8.699,-2.429 10.902,-7.062 h 4.576 z m -3.445,-8.021 c -0.622,-2.994 -2.034,-5.423 -4.237,-7.287 -2.203,-1.864 -4.857,-2.824 -7.965,-2.881 -3.106,-0.057 -5.818,0.904 -8.134,2.768 -2.316,1.864 -3.729,4.35 -4.35,7.4 h 24.686 z"
             id="path3082" />
          <path
             style="fill:#fff"
             inkscape:connector-curvature="0"
             d="m 478.913,304.831 h -4.463 l -13.218,-32.198 h 4.52 l 10.958,26.549 10.902,-26.549 h 4.745 l -13.444,32.198 z"
             id="path3084" />
          <path
             style="fill:#fff"
             inkscape:connector-curvature="0"
             d="m 526.121,304.831 h -4.181 v -5.027 c -3.502,4.011 -7.795,5.931 -12.879,5.762 -4.463,-0.17 -8.247,-1.864 -11.354,-5.141 -3.106,-3.276 -4.688,-7.174 -4.688,-11.693 0,-4.688 1.694,-8.756 5.027,-12.088 3.333,-3.389 7.344,-4.971 12.032,-4.802 4.519,0.17 8.36,1.864 11.523,5.197 3.163,3.276 4.688,7.174 4.52,11.636 v 0.226 15.93 z m -28.753,-16.438 c -0.057,3.389 1.017,6.383 3.333,8.925 2.316,2.542 5.141,3.841 8.417,4.011 3.559,0.169 6.552,-1.073 9.038,-3.672 2.542,-2.655 3.728,-5.762 3.671,-9.321 -0.056,-3.389 -1.299,-6.27 -3.615,-8.699 -2.315,-2.429 -5.14,-3.615 -8.416,-3.615 -3.446,0 -6.327,1.187 -8.756,3.615 -2.429,2.429 -3.615,5.31 -3.672,8.756 z"
             id="path3086" />
        </g>
        <g
           id="g3088">
          <g
             id="g3090">
            <path
               style="fill:#e35525"
               inkscape:connector-curvature="0"
               d="m 302.964,271.643 c -6.649,0 -12.06,5.41 -12.06,12.059 0,6.649 5.41,12.059 12.06,12.059 6.65,0 12.059,-5.41 12.059,-12.059 -0.001,-6.649 -5.41,-12.059 -12.059,-12.059 z"
               id="path3092" />
          </g>
          <g
             id="g3094">
            <path
               style="fill:#e35525"
               inkscape:connector-curvature="0"
               d="m 326.624,260.291 c -6.63,-6.491 -14.531,-9.738 -23.702,-9.738 -9.171,0 -17.058,3.247 -23.659,9.738 -6.603,6.493 -9.903,14.324 -9.903,23.494 0,9.171 3.301,16.976 9.903,23.412 6.602,6.437 14.488,9.654 23.659,9.654 h 33.646 v -33.066 c 0,-9.17 -3.314,-17.002 -9.944,-23.494 z m -23.66,48.97 c -14.094,0 -25.56,-11.465 -25.56,-25.559 0,-14.094 11.466,-25.559 25.56,-25.559 14.093,0 25.559,11.466 25.559,25.559 0,14.093 -11.466,25.559 -25.559,25.559 z"
               id="path3096" />
          </g>
        </g>
      </g>
    </g>
  </g>
</svg>
