<svg id="Layer_1" data-name="Layer 1" xmlns="http://www.w3.org/2000/svg" viewBox="0 0 35 11"><defs><style>.cls-1{opacity:0.78;}.cls-2{fill:#fff;}</style></defs><title>AdevaLogo-White</title><g id="g3074"><g id="g3076" class="cls-1"><path id="path3078" class="cls-2" d="M16,7.57h-.5V7a1.85,1.85,0,0,1-1.5.66A1.88,1.88,0,0,1,12.63,7a2,2,0,0,1,0-2.83h0a1.82,1.82,0,0,1,1.42-.57,1.9,1.9,0,0,1,1.36.62A1.84,1.84,0,0,1,16,5.65Zm-3.4-2A1.49,1.49,0,0,0,13,6.68a1.4,1.4,0,0,0,1,.48,1.33,1.33,0,0,0,1.07-.44,1.52,1.52,0,0,0,.43-1.11,1.5,1.5,0,0,0-.43-1,1.32,1.32,0,0,0-1-.43,1.4,1.4,0,0,0-1,.43,1.45,1.45,0,0,0-.43,1Z"/><path id="path3080" class="cls-2" d="M20.47,5.67a1.88,1.88,0,0,1-.59,1.43,1.88,1.88,0,0,1-1.43.57,1.86,1.86,0,0,1-1.35-.61,2,2,0,0,1,.05-2.83,1.82,1.82,0,0,1,1.42-.58,1.88,1.88,0,0,1,1.4.68V2.41h.5Zm-2,1.5a1.31,1.31,0,0,0,1.07-.44A1.47,1.47,0,0,0,20,5.63a1.5,1.5,0,0,0-.43-1,1.31,1.31,0,0,0-1-.43,1.38,1.38,0,0,0-1,.43,1.45,1.45,0,0,0-.43,1,1.5,1.5,0,0,0,.4,1.06,1.35,1.35,0,0,0,.91.49Z"/><path id="path3082" class="cls-2" d="M24.82,6.31A2,2,0,0,1,23,7.67a1.89,1.89,0,0,1-1.38-.57,2,2,0,0,1,0-2.89A1.86,1.86,0,0,1,23,3.63a2,2,0,0,1,1.32.63,1.84,1.84,0,0,1,.54,1.29v.28H21.48a1.42,1.42,0,0,0,.49,1,1.46,1.46,0,0,0,1,.37,1.35,1.35,0,0,0,1.29-.84h.54Zm-.41-1a1.5,1.5,0,0,0-.5-.87,1.52,1.52,0,0,0-1.91,0,1.47,1.47,0,0,0-.52.88Z"/><path id="path3084" class="cls-2" d="M27.11,7.57h-.53L25,3.74h.54l1.3,3.17,1.29-3.17h.56Z"/><path id="path3086" class="cls-2" d="M32.7,7.57h-.5V7a1.85,1.85,0,0,1-1.53.69A1.88,1.88,0,0,1,29.34,7a2,2,0,0,1,0-2.83h0a1.82,1.82,0,0,1,1.42-.57,1.9,1.9,0,0,1,1.36.62,1.84,1.84,0,0,1,.54,1.39v2Zm-3.4-2a1.49,1.49,0,0,0,.39,1.06,1.4,1.4,0,0,0,1,.48,1.33,1.33,0,0,0,1.07-.44,1.52,1.52,0,0,0,.43-1.11,1.5,1.5,0,0,0-.43-1,1.32,1.32,0,0,0-1-.43,1.4,1.4,0,0,0-1,.43,1.45,1.45,0,0,0-.43,1Z"/></g><g id="g3088"><g id="g3090"><path id="path3092" class="cls-2" d="M6.28,3.62A1.44,1.44,0,1,0,7.7,5.08s0,0,0,0A1.43,1.43,0,0,0,6.28,3.62Z"/></g><g id="g3094"><path id="path3096" class="cls-2" d="M9.08,2.26A3.86,3.86,0,0,0,6.27,1.1a3.84,3.84,0,0,0-2.8,1.16A3.8,3.8,0,0,0,2.3,5.06a3.77,3.77,0,0,0,1.17,2.8A3.86,3.86,0,0,0,6.27,9h4V5.06a3.79,3.79,0,0,0-1.18-2.8ZM6.28,8.1a3,3,0,1,1,3-3,3,3,0,0,1-3,3Z"/></g></g></g></svg>