<svg id="Layer_1" data-name="Layer 1" xmlns="http://www.w3.org/2000/svg" viewBox="0 0 188.97 171.72"><defs><style>.cls-1{fill:#dd5a62;}.cls-2{fill:#dc8368;}.cls-3{fill:#d45864;}.cls-4{fill:#303386;}</style></defs><title>Detail-Speakers</title><path class="cls-1" d="M64.67,92.86c-2.74,14-8.64,26.58-16.31,38.46-.12.19.1.6.16.9l.05-.08-.72.18.71.93c1.17,1.07,1.68.41,2-.77,4.22-1.37,8.38-3,12.89-3.21,1.06,1,1.63.53,2-.63a41.24,41.24,0,0,1,4.79-1c3.65-.3,7-.83,8.91-4.67.86-1.69,3-2.41,5-2.81,4.94-.21,8.6,1.42,9.81,6.71s-.43,8.33-5.93,11.34c-2.64,0-5.9.66-7.5-1.51-3.42-4.65-7.54-3.51-11.91-2.58-3.37.72-6.77,1.26-10.16,1.88-1.14-1-1.65-.4-2,.74l-10,3.1c-1.21-.9-1.66-.19-1.93.91A32.79,32.79,0,0,0,33,148.77,64,64,0,0,1,18.81,160c-2.43.7-2.32,2.15-1.15,3.91-1.52,5.94-5.94,8.91-11.09,7.48A9.09,9.09,0,0,1,.36,160.07c1.45-5,6.32-7.65,11.8-5.73,2.65.93,4.26.27,6.23-1.19C37,139.38,49.93,121.62,56.83,99.49c1.12-.31,1.78-.8.79-2-.2-3.4,3.18-7.39-1.66-10-1-3.41-2.72-5.44-6.77-5.3-2.5.08-5-1.06-7.56-1.65C34,77.2,28.4,71.56,23.84,64.74,21.05,58.55,18.62,52.26,18,45.41c-.19-2.23-.29-4.07,3-2.95,15.34,5.21,29.5,12,36.88,27.7C59.1,72.68,60.58,73,63.25,73c3.74,0,3.77-2.82,4.54-4.86,5.94-15.89,19.07-23.88,33.35-30.65,1.9-.9,2.51-.27,2.82,1.77,2.3,15.37-8.48,34.6-22.72,40-4.48,1.69-9.66,2.06-10.76,8.21-.17,1-1.49,1.7-2.27,2.54C66.45,90.22,65.05,90.92,64.67,92.86Zm25.13,36.7c.12-2.73-1.44-4.38-4.16-4.5a4,4,0,0,0-4.57,4.1c-.14,2.74,1.54,4.17,4.24,4.6C87.89,133.58,89.68,132.3,89.8,129.56ZM8.89,158.2a4.07,4.07,0,0,0-4.26,4.48,4,4,0,0,0,4.44,4.25c2.77,0,4.1-1.75,4.34-4.32C13.1,159.81,11.51,158.13,8.89,158.2ZM67.72,82.15a4.06,4.06,0,0,0-4.13-4.56c-2.71-.11-4.33,1.44-4.45,4.17s1.44,4.2,4.06,4.68C65.86,86.21,67.62,84.77,67.72,82.15Z"/><path class="cls-2" d="M84.14,120.22c4.94-.21,8.6,1.42,9.81,6.71s-.43,8.33-5.93,11.34c4,13.31,25.4,28,46,26.46,3.73-.28,2.49-2,1.26-3.78A56.86,56.86,0,0,0,113,141.9c-3.57-1.71-3.54-2.85-.69-5.32a117.57,117.57,0,0,0,13.53-14.4c1.74-2.11,1.49-3.22-1-4.35a86.34,86.34,0,0,0-18.15-6.32c-4.05-.83-4.2-2-2-5.24,5.36-7.77,9.39-16.22,11-25.66.09-4.11-.94-5.64-5.36-3.37-12.16,6.23-21.07,15.1-25.34,28.34-.54,1.66.05,3.27-.63,4.78Z"/><path class="cls-1" d="M133.6,99.95a39.86,39.86,0,0,0,7-19.76c.21-3.12-1-4.37-4-3.55-5.4,1.47-11.45,1-15.93,5.23-.34,8.09-3.13,15.4-7.24,22.24-1.37,2.27-1.13,2.93,1.44,4.08,6,2.68,10.06-.21,14.1-3.8C130.59,103,132.07,101.43,133.6,99.95Z"/><path class="cls-1" d="M130.78,132.18c-4.5-1-6.26,3.14-8.95,5.56-1.42,1.28.15,1.95,1.09,2.49a53.19,53.19,0,0,1,17.43,15.85,3,3,0,0,0,3.82,1.25q6.42-1.82,12.85-3.61c3-.84,3.33-2.33,1.77-5A34.23,34.23,0,0,0,130.78,132.18Z"/><path class="cls-1" d="M156.46,115.28c.41-1.62,1.9-3.37-.45-4.7-5.81-3.3-11.65-6.5-18.56-6.79-2.17,3.8-6.1,5.88-9.06,8.93,6.73,5.62,6.73,5.62,3.31,13.27,3.36.86,6.73,1.56,10,2.6,2,.64,3.1-.47,4.36-1.5C150.18,123.73,153.36,119.54,156.46,115.28Z"/><path class="cls-1" d="M167.44,138.77c3-3,6.09-5.92,9.11-8.91,1.15-1.14,2-2.41-.1-3.44-5.08-2.55-9.88-5.85-15.84-6.18a44.3,44.3,0,0,1-8,9.34c-2.32,2-2.05,3.3.38,4.81a10.31,10.31,0,0,1,3.33,2.91C159.49,142.33,163.18,142.38,167.44,138.77Z"/><path class="cls-3" d="M18.81,160c-2.43.7-2.32,2.15-1.15,3.91Z"/><path class="cls-3" d="M46.5,139.91c-1.21-.9-1.66-.19-1.93.91Z"/><path class="cls-3" d="M56.83,99.49c1.12-.31,1.78-.8.79-2Z"/><path class="cls-3" d="M58.44,136.06c-1.14-1-1.65-.4-2,.74Z"/><path class="cls-1" d="M78.07,32.83a22.51,22.51,0,0,0-1.79-7.5C73,17.2,68.48,9.72,64.18,2.12c-1.93-3.4-3-2.26-4.56.28A217.1,217.1,0,0,0,48.93,23c-5,10.81-2.36,19.77,5.83,27.75,6.53,6.37,6.73,6.48,13-.13C72.71,45.47,77.25,40,78.07,32.83Z"/><path class="cls-1" d="M161.62,106.23c2.95,1.47,6.07,2.79,3,6.76-.91,1.19-.22,2,1.22,2.48,3,1,5.89,2.16,8.79,3.36a3,3,0,0,0,3.62-.55c.48-.46,1-.83,1.48-1.32,3.74-4.11,7.77-8,9.2-13.7-5.43-3.62-11.72-5.17-17.74-7.34-1.13-.41-1.83.46-2.45,1.24Z"/><path class="cls-1" d="M150,83.34c-3.08-.38-4.86.77-5,3.91-.18,3.76-4.56,7.47-2.46,10.4,1.71,2.39,6.66,2.22,9.8,3.89,3.76,2,6.09,1,8.17-2.23.8-1.24,1.85-2.31,2.73-3.5,5.86-7.9,5.81-8.14-3.58-10.6C156.45,84.4,153.18,84,150,83.34Z"/><path class="cls-3" d="M50.56,132.49l-2-.27.05-.08v1.11C49.74,134.33,50.25,133.67,50.56,132.49Z"/><path class="cls-3" d="M65.44,128.65l-2,.63C64.51,130.33,65.08,129.82,65.44,128.65Z"/><path class="cls-4" d="M48.57,133.26v-1.11l-.72.18Z"/></svg>