<svg id="Layer_1" data-name="Layer 1" xmlns="http://www.w3.org/2000/svg" viewBox="0 0 188.97 171.72"><defs><style>.cls-1{fill:#dd5a62;}.cls-2{fill:#dc8368;}.cls-3{fill:#d45864;}.cls-4{fill:#303386;}</style></defs><title>Detail-Speakers</title><path class="cls-1" d="M120.77,89.93c-.79-.84-2.1-1.59-2.27-2.54-1.1-6.14-6.28-6.52-10.76-8.21-14.24-5.35-25-24.59-22.72-40,.3-2,.92-2.67,2.82-1.77,14.28,6.77,27.4,14.76,33.35,30.65.76,2,.79,4.82,4.54,4.86,2.66,0,4.14-.29,5.32-2.8,7.38-15.73,21.54-22.5,36.88-27.7,3.3-1.12,3.2.71,3,2.95-.58,6.85-3,13.14-5.81,19.33C160.57,71.56,155,77.2,147.33,80.58c-2.52.59-5.06,1.73-7.56,1.65-4-.13-5.8,1.9-6.77,5.3-4.85,2.62-1.46,6.61-1.66,10-1,1.15-.33,1.65.79,2,6.9,22.12,19.86,39.89,38.44,53.66,2,1.46,3.57,2.12,6.23,1.19,5.48-1.92,10.35.72,11.8,5.73a9.09,9.09,0,0,1-6.21,11.29c-5.15,1.44-9.58-1.54-11.09-7.48,1.17-1.76,1.29-3.21-1.15-3.91A64,64,0,0,1,156,148.77a32.79,32.79,0,0,0-11.58-7.95c-.27-1.1-.72-1.81-1.93-.91l-10-3.1c-.32-1.15-.83-1.76-2-.74-3.39-.62-6.79-1.17-10.16-1.88-4.37-.93-8.49-2.07-11.91,2.58-1.6,2.17-4.86,1.55-7.5,1.51-5.5-3-7.12-6.16-5.93-11.34s4.86-6.92,9.81-6.71c2,.41,4.14,1.12,5,2.81,2,3.84,5.26,4.36,8.91,4.67a41.24,41.24,0,0,1,4.79,1c.36,1.16.93,1.68,2,.63,4.51.21,8.67,1.84,12.89,3.21.31,1.18.81,1.84,2,.77l.71-.93-.72-.18.05.08c.06-.31.28-.72.16-.9-7.66-11.88-13.56-24.5-16.31-38.46C123.92,90.92,122.52,90.22,120.77,89.93Zm-17.12,43.84c2.7-.43,4.39-1.86,4.24-4.6a4,4,0,0,0-4.57-4.1c-2.72.12-4.28,1.77-4.16,4.5S101.08,133.58,103.65,133.77Zm71.9,28.85c.24,2.57,1.57,4.28,4.34,4.32a4,4,0,0,0,4.44-4.25,4.07,4.07,0,0,0-4.26-4.48C177.46,158.13,175.86,159.81,175.55,162.62ZM125.77,86.44c2.61-.48,4.17-2,4.06-4.68s-1.73-4.28-4.45-4.17a4.06,4.06,0,0,0-4.13,4.56C121.34,84.77,123.11,86.21,125.77,86.44Z"/><path class="cls-2" d="M104.83,120.22c-4.94-.21-8.6,1.42-9.81,6.71s.43,8.33,5.93,11.34c-4,13.31-25.4,28-46,26.46-3.73-.28-2.49-2-1.26-3.78A56.86,56.86,0,0,1,76,141.9c3.57-1.71,3.54-2.85.69-5.32a117.57,117.57,0,0,1-13.53-14.4c-1.74-2.11-1.49-3.22,1-4.35a86.34,86.34,0,0,1,18.15-6.32c4.05-.83,4.2-2,2-5.24-5.36-7.77-9.39-16.22-11-25.66-.09-4.11.94-5.64,5.36-3.37C90.85,83.48,99.76,92.35,104,105.6c.54,1.66-.05,3.27.63,4.78Z"/><path class="cls-1" d="M55.37,99.95a39.86,39.86,0,0,1-7-19.76c-.21-3.12,1-4.37,4-3.55,5.4,1.47,11.45,1,15.93,5.23.34,8.09,3.13,15.4,7.24,22.24,1.37,2.27,1.13,2.93-1.44,4.08-6,2.68-10.06-.21-14.1-3.8C58.37,103,56.9,101.43,55.37,99.95Z"/><path class="cls-1" d="M58.18,132.18c4.5-1,6.26,3.14,8.95,5.56,1.42,1.28-.15,1.95-1.09,2.49a53.19,53.19,0,0,0-17.43,15.85,3,3,0,0,1-3.82,1.25q-6.42-1.82-12.85-3.61c-3-.84-3.33-2.33-1.77-5A34.23,34.23,0,0,1,58.18,132.18Z"/><path class="cls-1" d="M32.51,115.28c-.41-1.62-1.9-3.37.45-4.7,5.81-3.3,11.65-6.5,18.56-6.79,2.17,3.8,6.1,5.88,9.06,8.93-6.73,5.62-6.73,5.62-3.31,13.27-3.36.86-6.73,1.56-10,2.6-2,.64-3.1-.47-4.36-1.5C38.79,123.73,35.61,119.54,32.51,115.28Z"/><path class="cls-1" d="M21.53,138.77c-3-3-6.09-5.92-9.11-8.91-1.15-1.14-2-2.41.1-3.44,5.08-2.55,9.88-5.85,15.84-6.18a44.3,44.3,0,0,0,8,9.34c2.32,2,2.05,3.3-.38,4.81a10.31,10.31,0,0,0-3.33,2.91C29.48,142.33,25.79,142.38,21.53,138.77Z"/><path class="cls-3" d="M170.15,160c2.43.7,2.32,2.15,1.15,3.91Z"/><path class="cls-3" d="M142.47,139.91c1.21-.9,1.66-.19,1.93.91Z"/><path class="cls-3" d="M132.14,99.49c-1.12-.31-1.78-.8-.79-2Z"/><path class="cls-3" d="M130.53,136.06c1.14-1,1.65-.4,2,.74Z"/><path class="cls-1" d="M110.9,32.83a22.51,22.51,0,0,1,1.79-7.5c3.27-8.14,7.8-15.61,12.1-23.21,1.93-3.4,3-2.26,4.56.28A217.1,217.1,0,0,1,140,23c5,10.81,2.36,19.77-5.83,27.75-6.53,6.37-6.73,6.48-13-.13C116.26,45.47,111.72,40,110.9,32.83Z"/><path class="cls-1" d="M27.35,106.23c-2.95,1.47-6.07,2.79-3,6.76.91,1.19.22,2-1.22,2.48-3,1-5.89,2.16-8.79,3.36a3,3,0,0,1-3.62-.55c-.48-.46-1-.83-1.48-1.32-3.74-4.11-7.77-8-9.2-13.7,5.43-3.62,11.72-5.17,17.74-7.34,1.13-.41,1.83.46,2.45,1.24Z"/><path class="cls-1" d="M39,83.34c3.08-.38,4.86.77,5,3.91.18,3.76,4.56,7.47,2.46,10.4-1.71,2.39-6.66,2.22-9.8,3.89-3.76,2-6.09,1-8.17-2.23-.8-1.24-1.85-2.31-2.73-3.5-5.86-7.9-5.81-8.14,3.58-10.6C32.52,84.4,35.78,84,39,83.34Z"/><path class="cls-3" d="M138.41,132.49l2-.27-.05-.08v1.11C139.23,134.33,138.72,133.67,138.41,132.49Z"/><path class="cls-3" d="M123.53,128.65l2,.63C124.46,130.33,123.89,129.82,123.53,128.65Z"/><path class="cls-4" d="M140.4,133.26v-1.11l.72.18Z"/></svg>